name rise32.9588peak41.5061fall63.4684.mot
datacolumns 19
datarows 14
range 14.23495300000000 14.25660900000000
endheader
time	ground_force1_vx	ground_force1_vy	ground_force1_vz	ground_force1_px	ground_force1_py	ground_force1_pz	ground_force2_vx	ground_force2_vy	ground_force2_vz	ground_force2_px	ground_force2_py	ground_force2_pz	ground_torque1_x	ground_torque1_y	ground_torque1_z	ground_torque2_x	ground_torque2_y	ground_torque2_z	
14.23495300000000	-47.98467400000000	825.08519699999999	49.50132500000000	0.07088400000000	0.00000000000000	0.10994700000000	0.00000000000000	0.00000000000000	0.00000000000000	0.00000000000000	0.00000000000000	0.00000000000000	0.00000000000000	15.46594900000000	0.00000000000000	0.00000000000000	0.00000000000000	0.00000000000000	
14.23661200000000	-48.49566400000000	822.43123300000002	49.37620600000000	0.07002000000000	0.00000000000000	0.10990900000000	0.00000000000000	0.00000000000000	0.00000000000000	0.00000000000000	0.00000000000000	0.00000000000000	0.00000000000000	15.43589400000000	0.00000000000000	0.00000000000000	0.00000000000000	0.00000000000000	
14.23828400000000	-49.02162800000000	819.65746000000001	49.23782700000000	0.06915400000000	0.00000000000000	0.10986800000000	0.00000000000000	0.00000000000000	0.00000000000000	0.00000000000000	0.00000000000000	0.00000000000000	0.00000000000000	15.40897400000000	0.00000000000000	0.00000000000000	0.00000000000000	0.00000000000000	
14.23995000000000	-49.56265100000000	816.76381700000002	49.08594700000000	0.06828600000000	0.00000000000000	0.10982500000000	-1.64014400000000	3.51453800000000	1.36617500000000	0.00000000000000	0.00000000000000	0.00000000000000	0.00000000000000	15.38525900000000	0.00000000000000	0.00000000000000	0.36112200000000	0.00000000000000	
14.24161700000000	-50.11874100000000	813.75021600000002	48.92032600000000	0.06741700000000	0.00000000000000	0.10977900000000	-2.64025900000000	6.79807200000000	2.32248100000000	0.00000000000000	0.00000000000000	0.00000000000000	0.00000000000000	15.36480000000000	0.00000000000000	0.00000000000000	0.62777200000000	0.00000000000000	
14.24327900000000	-50.68983100000000	810.61653400000000	48.74073000000000	0.06654600000000	0.00000000000000	0.10973000000000	-3.77482700000000	10.77024800000000	3.43311800000000	0.00000000000000	0.00000000000000	0.00000000000000	0.00000000000000	15.34763800000000	0.00000000000000	0.00000000000000	0.93991500000000	0.00000000000000	
14.24494600000000	-51.27577500000000	807.36261100000002	48.54692600000000	0.06567500000000	0.00000000000000	0.10967800000000	-5.01044800000000	15.39065600000000	4.67308200000000	0.00000000000000	0.00000000000000	0.00000000000000	0.00000000000000	15.33379300000000	0.00000000000000	0.00000000000000	1.29122300000000	0.00000000000000	
14.24661600000000	-51.87634400000000	803.98824800000000	48.33868600000000	0.06480300000000	0.00000000000000	0.10962300000000	-6.30510900000000	20.58886200000000	6.00880900000000	0.00000000000000	0.00000000000000	0.00000000000000	0.00000000000000	15.32327300000000	0.00000000000000	0.00000000000000	1.67294600000000	0.00000000000000	
14.24828000000000	-52.49123000000000	800.49320399999999	48.11578700000000	0.06393100000000	0.00000000000000	0.10956500000000	-7.61093000000000	26.26979900000000	7.40040900000000	0.28805600000000	0.00000000000000	-0.05124700000000	0.00000000000000	15.31606800000000	0.00000000000000	0.00000000000000	3.81619200000000	0.00000000000000	
14.24994300000000	-53.12003700000000	796.87719800000002	47.87801100000000	0.06305900000000	0.00000000000000	0.10950400000000	-8.87765800000000	32.32185200000000	8.80463800000000	0.29095500000000	0.00000000000000	-0.05217800000000	0.00000000000000	15.31215200000000	0.00000000000000	0.00000000000000	4.58276500000000	0.00000000000000	
14.25161600000000	-53.76228400000000	793.13990699999999	47.62514700000000	0.06218700000000	0.00000000000000	0.10943900000000	-10.05644200000000	38.62655200000000	10.17822100000000	0.29370900000000	0.00000000000000	-0.05303900000000	0.00000000000000	15.31148000000000	0.00000000000000	0.00000000000000	5.34641800000000	0.00000000000000	
14.25328100000000	-54.41740500000000	789.28096500000004	47.35699200000000	0.06131700000000	0.00000000000000	0.10937100000000	-11.10339100000000	45.06850000000000	11.48107900000000	0.29633400000000	0.00000000000000	-0.05384000000000	0.00000000000000	15.31399300000000	0.00000000000000	0.00000000000000	6.08630100000000	0.00000000000000	
14.25494600000000	-55.08474500000000	785.29996700000004	47.07334900000000	0.06044800000000	0.00000000000000	0.10930000000000	-11.98246000000000	51.54419200000000	12.67903000000000	0.29884500000000	0.00000000000000	-0.05458800000000	0.00000000000000	15.31961100000000	0.00000000000000	0.00000000000000	6.78413800000000	0.00000000000000	
14.25660900000000	-55.76356000000000	781.19646999999998	46.77403500000000	0.05958200000000	0.00000000000000	0.10922500000000	-12.66736400000000	57.96882500000000	13.74570300000000	0.30125200000000	0.00000000000000	-0.05529200000000	0.00000000000000	15.32823900000000	0.00000000000000	0.00000000000000	7.42530400000000	0.00000000000000	
